nColumns=19
nRows=46
DataType=double
version=3
OpenSimVersion=4.1
endheader
time	ground_force_calcn_r_vx	ground_force_calcn_r_vy	ground_force_calcn_r_vz	ground_force_calcn_r_px	ground_force_calcn_r_py	ground_force_calcn_r_pz	ground_force_calcn_r_mx	ground_force_calcn_r_my	ground_force_calcn_r_mz	ground_force_calcn_l_vx	ground_force_calcn_l_vy	ground_force_calcn_l_vz	ground_force_calcn_l_px	ground_force_calcn_l_py	ground_force_calcn_l_pz	ground_force_calcn_l_mx	ground_force_calcn_l_my	ground_force_calcn_l_mz
2.22	0	0	0	0	0	0	0	0	0	-62.0099	51.586	12.2752	-0.0236064	0	-0.609851	2.92078	-2.4298	-0.578186
2.23	-128.828	155.927	-46.8711	-0.12076	0	-0.377512	-0.825659	0.999337	-0.300397	-259.661	337.598	54.1214	-0.0975159	0	-0.735742	1.98446	-2.58009	-0.413622
2.24	-284.949	458.014	-112.765	-0.14714	0	-0.37514	-1.31295	2.11037	-0.519582	-240.295	627.212	104.254	-0.146974	0	-0.740903	1.45723	-3.80362	-0.632232
2.25	-125.88	697.965	-105.504	-0.203116	0	-0.38847	-0.388551	2.1544	-0.325658	-49.0171	1154.16	112.651	-0.206427	0	-0.737281	-0.070526	1.66061	0.162083
2.26	22.397	1063.99	-47.7708	-0.247201	0	-0.406252	-0.062	-2.94537	0.132241	-46.2616	1297.85	70.94	-0.217682	0	-0.734408	-0.223033	6.25711	0.342011
2.27	-43.2809	944.356	-21.8241	-0.245902	0	-0.410627	0.210954	-4.60286	0.106372	-238.517	799.805	65.8473	-0.185472	0	-0.735193	-1.23812	4.15172	0.341807
2.28	-223.98	559.339	-46.5893	-0.204944	0	-0.403251	0.972848	-2.42947	0.202359	-345.954	472.314	63.2456	-0.127085	0	-0.732573	0.416895	-0.569167	-0.0762148
2.29	-294.622	380.186	-44.3243	-0.160176	0	-0.398561	0.866553	-1.11821	0.130368	-339.932	400.953	39.9813	-0.107966	0	-0.727409	0.742185	-0.875417	-0.0872928
2.3	-270.253	372.239	-12.6723	-0.16518	0	-0.40562	1.25762	-1.73222	0.0589706	-297.599	452.129	15.9126	-0.128313	0	-0.725992	-0.553197	0.840447	0.0295794
2.31	-205.659	444.81	-1.31613	-0.194217	0	-0.413887	0.74823	-1.61831	0.00478836	-214.926	625.301	8.26036	-0.168855	0	-0.724783	-1.1208	3.26084	0.0430764
2.32	-132.579	568.976	-38.4059	-0.221118	0	-0.414795	0.118948	-0.510479	0.0344573	-112.21	813.34	22.9031	-0.196846	0	-0.724712	-0.549169	3.98059	0.11209
2.33	-72.9154	667.599	-58.8669	-0.235952	0	-0.415713	0.07083	-0.648506	0.0571833	-68.3702	826.712	44.949	-0.203504	0	-0.726267	-0.252883	3.05779	0.166254
2.34	-60.1912	669.128	-50.6622	-0.238449	0	-0.417622	0.165099	-1.83536	0.138962	-99.6858	719.844	51.5461	-0.195514	0	-0.728001	-0.396279	2.86158	0.20491
2.35	-86.8535	611.908	-44.0981	-0.232696	0	-0.418053	0.385417	-2.71537	0.195688	-135.594	633.24	45.2039	-0.184881	0	-0.729205	-0.785877	3.67012	0.261992
2.36	-103.865	565.834	-49.3328	-0.227385	0	-0.41746	0.527541	-2.87392	0.250566	-138.51	594.066	45.9869	-0.18042	0	-0.730268	-0.998926	4.28437	0.331655
2.37	-95.4317	558.005	-52.5236	-0.227664	0	-0.418082	0.510228	-2.98339	0.280819	-122.7	574.623	52.6403	-0.180301	0	-0.730911	-0.997954	4.67356	0.428138
2.38	-79.6988	567.5	-48.1576	-0.230261	0	-0.41978	0.497947	-3.54566	0.300882	-107.57	570.713	52.3238	-0.181721	0	-0.730385	-1.0537	5.59041	0.512537
2.39	-69.7209	570.325	-45.4749	-0.231928	0	-0.420819	0.521535	-4.26622	0.340167	-91.5008	586.62	44.5448	-0.185259	0	-0.728721	-1.10438	7.08031	0.537641
2.4	-61.8312	569.611	-46.6704	-0.233002	0	-0.420896	0.537834	-4.95471	0.405958	-74.9532	600.471	37.9425	-0.189085	0	-0.727102	-1.04496	8.37145	0.528974
2.41	-53.9838	572.835	-46.6007	-0.234037	0	-0.420638	0.540942	-5.74006	0.466959	-69.1084	595.322	37.552	-0.190245	0	-0.726689	-1.05377	9.0775	0.572595
2.42	-47.9922	580.578	-47.3466	-0.234888	0	-0.4201	0.540268	-6.5358	0.533	-72.1954	578.158	38.0067	-0.189154	0	-0.726916	-1.18026	9.45177	0.621337
2.43	-38.545	596.61	-51.0342	-0.236544	0	-0.419669	0.449376	-6.95557	0.594982	-73.8739	565.169	34.8046	-0.188027	0	-0.726923	-1.2937	9.89742	0.609509
2.44	-22.5218	618.211	-54.4896	-0.239078	0	-0.419823	0.25517	-7.00428	0.617362	-71.3129	566.177	33.0802	-0.188	0	-0.727133	-1.29744	10.3008	0.60185
2.45	-9.42424	632.363	-56.062	-0.240994	0	-0.420156	0.104343	-7.0014	0.620707	-65.6161	577.729	38.4884	-0.189156	0	-0.728208	-1.17769	10.3692	0.690799
2.46	-2.97644	635.537	-56.7302	-0.241707	0	-0.420323	0.0328619	-7.01677	0.62634	-57.4118	591.493	49.0148	-0.190917	0	-0.729681	-0.98347	10.1323	0.839628
2.47	1.15831	634.249	-57.3103	-0.241878	0	-0.420343	-0.0127763	-6.99586	0.632141	-48.401	604.334	58.3939	-0.19266	0	-0.730941	-0.793841	9.91188	0.957737
2.48	4.64489	633	-57.2191	-0.241744	0	-0.420395	-0.0515037	-7.01886	0.634459	-38.8322	614.265	62.4421	-0.19425	0	-0.731413	-0.627508	9.92619	1.00903
2.49	7.94613	633.152	-56.049	-0.241427	0	-0.420559	-0.0899065	-7.1638	0.634167	-31.819	616.789	61.6846	-0.195205	0	-0.73145	-0.522438	10.1271	1.0128
2.5	11.5204	631.486	-54.0954	-0.24108	0	-0.420854	-0.132437	-7.25951	0.621876	-30.4963	609.182	59.1866	-0.194878	0	-0.731635	-0.517153	10.3304	1.00368
2.51	14.2287	624.665	-52.1355	-0.240528	0	-0.421187	-0.163779	-7.1902	0.600105	-31.4769	595.672	57.2842	-0.193876	0	-0.731747	-0.553645	10.4772	1.00757
2.52	16.6876	612.94	-50.0694	-0.239962	0	-0.421673	-0.190509	-6.99745	0.571604	-30.675	582.819	56.8235	-0.193027	0	-0.731685	-0.550291	10.4554	1.01938
2.53	20.147	598.114	-47.9439	-0.239581	0	-0.422304	-0.224456	-6.66354	0.53414	-26.5154	573.571	56.9769	-0.192892	0	-0.731323	-0.478854	10.3584	1.02897
2.54	23.859	580.41	-46.4732	-0.238912	0	-0.422998	-0.254705	-6.19613	0.496122	-19.7383	565.38	57.6111	-0.193125	0	-0.730876	-0.354552	10.1557	1.03485
2.55	27.3025	559.174	-44.754	-0.237922	0	-0.424006	-0.281401	-5.76328	0.461269	-13.3377	554.477	59.1179	-0.193443	0	-0.730504	-0.236634	9.83745	1.04886
2.56	29.7384	536.545	-43.0434	-0.236804	0	-0.424919	-0.303086	-5.46832	0.438687	-8.92652	540.665	61.1217	-0.193642	0	-0.730234	-0.156153	9.45795	1.06921
2.57	31.5872	514.331	-42.1254	-0.235917	0	-0.425642	-0.323728	-5.27123	0.431731	-4.745	524.692	63.0308	-0.19384	0	-0.730052	-0.0824928	9.1219	1.09581
2.58	34.0858	493.584	-41.9807	-0.235269	0	-0.426309	-0.355947	-5.15435	0.438392	0.776252	505.994	64.3151	-0.19408	0	-0.729814	0.0135587	8.8381	1.12338
2.59	37.1924	474.971	-42.2007	-0.234527	0	-0.426759	-0.391567	-5.00056	0.444294	8.13306	487.901	64.225	-0.194144	0	-0.729307	0.143801	8.62663	1.13557
2.6	40.3043	460.36	-42.6585	-0.23279	0	-0.426888	-0.428991	-4.89998	0.454048	15.0242	473.721	62.4796	-0.193021	0	-0.728413	0.269769	8.50597	1.12186
2.61	39.6335	449.932	-43.7748	-0.228323	0	-0.42636	-0.42803	-4.85913	0.472754	16.9312	463.017	60.5339	-0.190097	0	-0.727577	0.309558	8.46546	1.10676
2.62	34.2352	442.466	-45.5716	-0.220799	0	-0.424975	-0.371662	-4.80348	0.494731	15.01	455.43	59.4033	-0.186033	0	-0.726874	0.279684	8.48608	1.10687
2.63	27.0621	439.431	-48.3031	-0.210995	0	-0.422586	-0.291394	-4.73161	0.520108	12.2087	451.122	59.8413	-0.180939	0	-0.726532	0.227533	8.40752	1.11526
2.64	18.6028	438.216	-52.9256	-0.199458	0	-0.419368	-0.193167	-4.55032	0.549566	6.73233	449.773	61.6636	-0.173931	0	-0.726562	0.122152	8.1607	1.11883
2.65	9.09063	435.302	-58.5535	-0.187019	0	-0.415674	-0.0875216	-4.19094	0.563734	-3.01546	449.704	63.1554	-0.165559	0	-0.72684	-0.0523593	7.80849	1.09661
2.66	1.1885	431.526	-63.159	-0.175682	0	-0.412342	-0.0106498	-3.86676	0.565946	-13.1207	451.037	63.3575	-0.157278	0	-0.726813	-0.217414	7.47384	1.04986
2.67	-4.77617	428.259	-65.2618	-0.166432	0	-0.410093	0.0417877	-3.74693	0.570989	-22.6659	456.532	63.8592	-0.149935	0	-0.726838	-0.354679	7.14388	0.999277
